<svg xmlns="http://www.w3.org/2000/svg" viewBox="0 0 33.97 33.97"><defs><style>.cls-1,.cls-4,.cls-5,.cls-7{fill:none;}.cls-1,.cls-3,.cls-4,.cls-6,.cls-7{stroke:#4d4d4d;}.cls-1,.cls-3,.cls-6,.cls-7{stroke-linecap:round;}.cls-1,.cls-3,.cls-6{stroke-linejoin:round;}.cls-1,.cls-3,.cls-6,.cls-8{stroke-width:0.09px;}.cls-2,.cls-3{fill:#4d4d4d;}.cls-4,.cls-5,.cls-7,.cls-8{stroke-miterlimit:10;}.cls-4{stroke-width:2.33px;}.cls-5{stroke:#707070;stroke-width:0.78px;}.cls-6,.cls-8{fill:#fff;}.cls-7{stroke-width:0.26px;}.cls-8{stroke:#666;}</style></defs><g id="Layer_2" data-name="Layer 2"><g id="Layer_1-2" data-name="Layer 1"><polygon class="cls-1" points="12.54 16.99 9.52 9.53 16.98 12.56 24.44 9.53 21.41 16.99 24.44 24.45 16.98 21.42 9.52 24.45 12.54 16.99"/><polygon class="cls-2" points="9.52 24.45 16.98 16.98 12.54 16.99 9.52 24.45"/><polygon class="cls-3" points="9.52 9.52 16.98 16.98 16.98 12.54 9.52 9.52"/><polygon class="cls-3" points="24.45 9.52 16.98 16.98 21.42 16.98 24.45 9.52"/><polygon class="cls-2" points="24.45 24.45 16.98 16.98 16.99 21.42 24.45 24.45"/><circle class="cls-4" cx="16.98" cy="16.98" r="15.82"/><circle class="cls-5" cx="16.98" cy="16.98" r="15.35"/><polygon class="cls-6" points="13.54 13.55 16.97 5.41 20.41 13.55 28.55 16.98 20.41 20.42 16.97 28.56 13.54 20.42 5.4 16.98 13.54 13.55"/><line class="cls-7" x1="16.98" y1="2.95" x2="16.98" y2="4.24"/><line class="cls-7" x1="13.35" y1="3.43" x2="13.69" y2="4.68"/><line class="cls-7" x1="9.97" y1="4.83" x2="10.62" y2="5.95"/><line class="cls-7" x1="7.07" y1="7.06" x2="7.98" y2="7.97"/><line class="cls-7" x1="4.84" y1="9.97" x2="5.96" y2="10.61"/><line class="cls-7" x1="3.44" y1="13.35" x2="4.69" y2="13.68"/><line class="cls-7" x1="2.97" y1="16.98" x2="4.25" y2="16.98"/><line class="cls-7" x1="3.44" y1="20.6" x2="4.69" y2="20.27"/><line class="cls-7" x1="4.85" y1="23.98" x2="5.96" y2="23.34"/><line class="cls-7" x1="7.07" y1="26.89" x2="7.98" y2="25.98"/><line class="cls-7" x1="9.98" y1="29.11" x2="10.62" y2="28"/><line class="cls-7" x1="13.36" y1="30.51" x2="13.69" y2="29.27"/><line class="cls-7" x1="16.99" y1="30.99" x2="16.99" y2="29.7"/><line class="cls-7" x1="20.61" y1="30.51" x2="20.28" y2="29.27"/><line class="cls-7" x1="24" y1="29.11" x2="23.35" y2="28"/><line class="cls-7" x1="26.9" y1="26.88" x2="25.99" y2="25.97"/><line class="cls-7" x1="29.13" y1="23.98" x2="28.01" y2="23.34"/><line class="cls-7" x1="30.53" y1="20.6" x2="29.28" y2="20.27"/><line class="cls-7" x1="31" y1="16.97" x2="29.71" y2="16.97"/><line class="cls-7" x1="30.52" y1="13.34" x2="29.28" y2="13.68"/><line class="cls-7" x1="29.12" y1="9.96" x2="28.01" y2="10.61"/><line class="cls-7" x1="26.89" y1="7.06" x2="25.98" y2="7.97"/><line class="cls-7" x1="23.99" y1="4.83" x2="23.35" y2="5.95"/><line class="cls-7" x1="20.61" y1="3.43" x2="20.28" y2="4.68"/><polygon class="cls-2" points="5.4 16.98 16.98 16.98 13.54 13.55 5.4 16.98"/><polygon class="cls-3" points="16.98 5.4 16.98 16.98 20.42 13.54 16.98 5.4"/><polygon class="cls-3" points="28.57 16.98 16.98 16.98 20.43 20.42 28.57 16.98"/><polygon class="cls-2" points="16.98 28.57 16.98 16.98 13.55 20.43 16.98 28.57"/><circle class="cls-8" cx="16.98" cy="16.98" r="1.27"/><circle class="cls-2" cx="16.98" cy="16.98" r="0.66"/></g></g></svg>