<svg xmlns="http://www.w3.org/2000/svg" viewBox="0 0 33.19 33.1"><defs><style>.cls-1{fill:#4d4d4d;}.cls-2,.cls-3{fill:none;stroke-miterlimit:10;}.cls-2{stroke:#fff;stroke-linecap:round;stroke-width:0.5px;}.cls-3{stroke:#4d4d4d;stroke-width:0.99px;}</style></defs><g id="Layer_2" data-name="Layer 2"><g id="Layer_1-2" data-name="Layer 1"><path class="cls-1" d="M1.26,33.1A1.26,1.26,0,0,1,0,31.83V1.26A1.25,1.25,0,0,1,1.26,0h2A1.26,1.26,0,0,1,4.51,1.26V28.59c.35,0,25.55-.18,27.32,0a1.42,1.42,0,0,1,.9.37,1.27,1.27,0,0,1,.37.89v2a1.27,1.27,0,0,1-1.27,1.27Z"/><line class="cls-2" x1="4.51" y1="3.11" x2="1.78" y2="3.11"/><line class="cls-2" x1="4.51" y1="5.46" x2="1.78" y2="5.46"/><line class="cls-2" x1="4.51" y1="7.82" x2="1.78" y2="7.82"/><line class="cls-2" x1="4.51" y1="10.16" x2="1.09" y2="10.16"/><line class="cls-2" x1="4.51" y1="12.35" x2="1.78" y2="12.35"/><line class="cls-2" x1="4.51" y1="14.69" x2="1.78" y2="14.69"/><line class="cls-2" x1="4.51" y1="17.05" x2="1.78" y2="17.05"/><line class="cls-2" x1="4.51" y1="19.39" x2="1.09" y2="19.39"/><line class="cls-2" x1="4.51" y1="21.18" x2="1.78" y2="21.18"/><line class="cls-2" x1="4.51" y1="23.52" x2="1.78" y2="23.52"/><line class="cls-2" x1="4.51" y1="25.88" x2="1.78" y2="25.88"/><line class="cls-2" x1="4.51" y1="28.22" x2="1.09" y2="28.22"/><line class="cls-2" x1="4.88" y1="28.51" x2="4.88" y2="31.25"/><line class="cls-2" x1="7.22" y1="28.51" x2="7.22" y2="31.25"/><line class="cls-2" x1="9.58" y1="28.51" x2="9.58" y2="31.25"/><line class="cls-2" x1="11.92" y1="28.51" x2="11.92" y2="31.93"/><line class="cls-2" x1="14.12" y1="28.51" x2="14.12" y2="31.25"/><line class="cls-2" x1="16.46" y1="28.51" x2="16.46" y2="31.25"/><line class="cls-2" x1="18.82" y1="28.51" x2="18.82" y2="31.25"/><line class="cls-2" x1="21.16" y1="28.51" x2="21.16" y2="31.93"/><line class="cls-2" x1="22.95" y1="28.51" x2="22.95" y2="31.25"/><line class="cls-2" x1="25.29" y1="28.51" x2="25.29" y2="31.25"/><line class="cls-2" x1="27.65" y1="28.51" x2="27.65" y2="31.25"/><line class="cls-2" x1="29.99" y1="28.51" x2="29.99" y2="31.93"/><rect class="cls-3" x="15.69" y="1.93" width="12.27" height="7.04" rx="1.45"/><rect class="cls-3" x="6.29" y="11.33" width="12.27" height="7.04" rx="1.45"/><rect class="cls-3" x="20.43" y="18.84" width="12.27" height="7.04" rx="1.45"/><path class="cls-3" d="M11.92,10.91v-4a1.45,1.45,0,0,1,1.46-1.45h2.31"/><path class="cls-3" d="M20.77,22.49h-6.9A1.45,1.45,0,0,1,12.42,21V18.37"/></g></g></svg>