<svg xmlns="http://www.w3.org/2000/svg" viewBox="0 0 33.16 32.86"><defs><style>.cls-1,.cls-2{fill:none;stroke:#4d4d4d;stroke-miterlimit:10;stroke-width:0.99px;}.cls-2{stroke-linecap:round;}</style></defs><g id="Layer_2" data-name="Layer 2"><g id="Layer_1-2" data-name="Layer 1"><rect class="cls-1" x="20.67" y="13" width="11.33" height="4.9" rx="1.58"/><rect class="cls-1" x="19.34" y="17.9" width="13.32" height="4.9" rx="1.58"/><rect class="cls-1" x="19.91" y="22.79" width="11.46" height="4.9" rx="1.58"/><rect class="cls-1" x="21.3" y="27.69" width="9.43" height="4.39" rx="1.58"/><path class="cls-1" d="M1.88,17.36H3a6.43,6.43,0,0,0,6-2.91c1.28-2.09,4.71-4.66,5.75-5.92,1.59-1.92,3.18-6.37,3.18-6.37A2.24,2.24,0,0,1,20.48.55l1.06.2c1.26.25,1.7,2.35,1.22,4.77s-2.87,6.37-3.52,9-1.24,8.25-6.7,9"/><path class="cls-2" d="M21.3,10c4.29,0,5.07,1.54,9.28,3"/><path class="cls-2" d="M7.59,26.57a8.7,8.7,0,0,0,5.58,5.51c2.43.73,8.81-.19,8.81-.19"/><line class="cls-2" x1="10.77" y1="30.88" x2="1.88" y2="31.04"/></g></g></svg>